#N canvas 2 23 1438 850 10;
#X obj 15 19 granular;
#X obj 193 650 output~;
#X obj 15 276 my_del;
#X obj 15 650 my_mixer;
#X obj 38 650 my_mixer;
#X obj 15 90 my_cheby;
#X obj 15 462 envelope_this;
#X obj 260 650 my_record;
#X connect 0 0 5 0;
#X connect 0 1 5 1;
#X connect 2 0 6 0;
#X connect 2 1 6 1;
#X connect 3 0 1 0;
#X connect 3 0 7 0;
#X connect 4 0 1 1;
#X connect 4 0 7 1;
#X connect 5 0 2 0;
#X connect 5 1 2 1;
#X connect 6 0 3 0;
#X connect 6 1 4 0;
#X coords 0 -1 1 1 370 780 2 10 10;
