#N canvas 201 314 833 453 10;
#X obj 31 521 outlet~;
#X obj 150 520 outlet~;
#X obj 70 385 * -1;
#X obj 71 362 - 1;
#X floatatom 70 413 5 0 0 0 - - -, f 5;
#X obj 71 340 / 127;
#X floatatom 109 414 5 0 0 0 - - -, f 5;
#X obj 89 450 *~ 0;
#X obj 51 450 *~ 0;
#X obj 183 387 * -1;
#X obj 184 364 - 1;
#X floatatom 183 415 5 0 0 0 - - -, f 5;
#X obj 184 342 / 127;
#X floatatom 225 417 5 0 0 0 - - -, f 5;
#X obj 202 452 *~ 0;
#X obj 164 452 *~ 0;
#X obj 253 53 my_cool_env;
#X obj 457 53 my_cool_env;
#X obj 39 16 inlet~;
#X obj 200 17 inlet~;
#X obj 256 211 hsl 150 15 0 127 0 0 empty empty empty -2 -8 0 10 -228856
-1 -1 0 1;
#X obj 410 211 bng 15 250 50 0 empty empty empty 0 -6 0 8 -228856 -1
-1;
#X text 385 211 wet;
#X obj 429 419 spigot 0;
#X obj 429 336 samphold~;
#X obj 429 368 snapshot~;
#X obj 427 300 noise~;
#X obj 480 300 phasor~ 3;
#X obj 428 442 * 0.5;
#X obj 428 463 + 0.5;
#X floatatom 428 485 5 0 0 0 - - -, f 5;
#X obj 428 504 * 127;
#X obj 427 550 line;
#X msg 428 528 \$1 350;
#X obj 427 211 tgl 15 0 empty empty empty 17 7 0 10 -228856 -1 -1 0
1;
#X obj 542 368 metro 500;
#X obj 541 346 tgl 15 0 empty empty empty 17 7 0 10 -262144 -1 -1 1
1;
#X obj 543 301 loadbang;
#X msg 541 324 1;
#X text 413 210 r;
#X text 256 211 dry;
#X msg 379 290 0;
#X obj 391 264 loadbang;
#X connect 2 0 4 0;
#X connect 3 0 2 0;
#X connect 4 0 8 1;
#X connect 5 0 3 0;
#X connect 5 0 6 0;
#X connect 6 0 7 1;
#X connect 7 0 0 0;
#X connect 8 0 0 0;
#X connect 9 0 11 0;
#X connect 10 0 9 0;
#X connect 11 0 15 1;
#X connect 12 0 10 0;
#X connect 12 0 13 0;
#X connect 13 0 14 1;
#X connect 14 0 1 0;
#X connect 15 0 1 0;
#X connect 16 0 7 0;
#X connect 16 1 14 0;
#X connect 17 0 7 0;
#X connect 17 1 14 0;
#X connect 18 0 16 0;
#X connect 18 0 8 0;
#X connect 19 0 17 0;
#X connect 19 0 15 0;
#X connect 20 0 12 0;
#X connect 20 0 5 0;
#X connect 21 0 41 0;
#X connect 23 0 28 0;
#X connect 24 0 25 0;
#X connect 25 0 23 0;
#X connect 26 0 24 0;
#X connect 27 0 24 1;
#X connect 28 0 29 0;
#X connect 29 0 30 0;
#X connect 30 0 31 0;
#X connect 31 0 33 0;
#X connect 32 0 20 0;
#X connect 33 0 32 0;
#X connect 34 0 23 1;
#X connect 35 0 25 0;
#X connect 36 0 35 0;
#X connect 37 0 38 0;
#X connect 38 0 36 0;
#X connect 41 0 20 0;
#X connect 42 0 41 0;
#X coords 0 -1 1 1 360 180 2 250 50;
