#N canvas 308 28 1440 851 10;
#X obj 251 74 soundfiler;
#X floatatom 251 95 8 0 0 0 - - -, f 8;
#X obj 250 112 expr 44100/$f1;
#X floatatom 249 133 8 0 0 0 - - -, f 8;
#X obj 249 150 phasor~;
#X obj 249 172 *~;
#X msg 250 51 read -resize samples/Detroit120.wav chL chR;
#X obj 88 175 phasor~;
#X obj 89 247 *~;
#X floatatom 147 143 8 0 0 0 - - -, f 8;
#X text 145 124 grain size;
#X floatatom 88 145 8 0 0 0 - - -, f 8;
#X obj 87 404 tabread4~ chL;
#X obj 90 312 +~;
#X obj 128 376 cos~;
#X obj 87 435 *~;
#X obj 105 282 samphold~;
#X obj 128 334 -~ 0.5;
#X obj 128 355 *~ 0.5;
#X obj 212 219 +~ 0.5;
#X obj 212 241 wrap~;
#X obj 180 268 *~;
#X text 85 127 freq;
#X obj 179 405 tabread4~ chL;
#X obj 179 320 +~;
#X obj 194 293 samphold~;
#X obj 216 380 cos~;
#X obj 216 338 -~ 0.5;
#X obj 216 359 *~ 0.5;
#X obj 180 439 *~;
#X obj 87 484 *~ 0.5;
#X obj 807 494 hsl 60 15 0 127 0 0 empty empty empty -2 -8 0 10 -228856
-1 -1 5900 1;
#X obj 146 50 loadbang;
#X msg 146 72 13000;
#X msg 105 71 12;
#X obj 758 350 loadbang;
#X floatatom 867 473 8 0 0 0 - - -, f 8;
#X text 803 472 grain size;
#X floatatom 831 455 8 0 0 0 - - -, f 8;
#X text 803 454 freq;
#X obj 100 687 outlet~;
#X obj 268 686 outlet~;
#X obj 239 16 loadbang;
#X text 847 494 wet;
#X text 805 494 dry;
#X obj 413 127 openpanel;
#X msg 413 149 read -resize \$1 chL chR;
#X obj 876 494 bng 15 250 50 0 empty empty empty 17 7 0 10 -228856
-1 -1;
#X msg 437 174 set \$1;
#N canvas 0 22 624 357 sample 0;
#N canvas 0 22 450 278 (subpatch) 0;
#X array chL 179299 float 2;
#X coords 0 1 179299 -1 200 140 1 0 0;
#X restore 16 26 graph;
#N canvas 0 22 450 278 (subpatch) 0;
#X array chR 179299 float 2;
#X coords 0 1 179299 -1 200 140 1 0 0;
#X restore 16 166 graph;
#X obj 230 28 inlet;
#X msg 229 53 /Users/enniomazzon/Desktop/pd/samples/Detroit120.wav
;
#X connect 2 0 3 0;
#X restore 437 197 pd sample;
#X text 892 494 Load;
#N canvas 0 22 746 441 rnd_freq 0;
#X obj 460 -322 random 100;
#X obj 461 -224 f;
#X obj 461 -248 sel 1;
#X floatatom 460 -204 5 0 0 0 - - -, f 5;
#X obj 459 -344 bng 15 250 50 0 empty empty empty 17 7 0 10 -262144
-1 -1;
#X obj 461 -298 t f f;
#X floatatom 466 -159 5 0 0 0 - - -, f 5;
#X obj 518 -224 f;
#X obj 518 -149 sel 1;
#X obj 518 -199 t f f;
#X obj 533 -124 f;
#X floatatom 560 -205 5 0 0 0 - - -, f 5;
#X obj 488 -225 bng 15 250 50 0 empty empty empty 17 7 0 10 -262144
-1 -1;
#X floatatom 533 -252 5 0 0 0 - - -, f 5;
#X floatatom 540 -77 5 0 0 0 - - -, f 5;
#X obj 605 -135 f;
#X obj 575 -136 bng 15 250 50 0 empty empty empty 17 7 0 10 -262144
-1 -1;
#X floatatom 612 -14 5 0 0 0 - - -, f 5;
#X obj 461 -272 < 20;
#X obj 460 -184 / 200;
#X obj 610 -40 +;
#X obj 604 -92 t f b;
#X floatatom 572 29 5 0 0 0 - - -, f 5;
#X obj 461 -367 inlet;
#X obj 573 50 outlet;
#X obj 629 -67 random 15;
#X obj 606 -114 / 5;
#X obj 518 -173 < 95;
#X obj 534 -102 / 9.5;
#X connect 0 0 5 0;
#X connect 1 0 3 0;
#X connect 2 0 1 0;
#X connect 2 1 12 0;
#X connect 3 0 19 0;
#X connect 4 0 0 0;
#X connect 5 0 18 0;
#X connect 5 1 1 1;
#X connect 5 1 13 0;
#X connect 6 0 22 0;
#X connect 7 0 9 0;
#X connect 7 0 11 0;
#X connect 8 0 10 0;
#X connect 8 1 16 0;
#X connect 9 0 27 0;
#X connect 9 1 10 1;
#X connect 9 1 15 1;
#X connect 10 0 28 0;
#X connect 12 0 7 0;
#X connect 13 0 7 1;
#X connect 14 0 22 0;
#X connect 15 0 26 0;
#X connect 16 0 15 0;
#X connect 17 0 22 0;
#X connect 18 0 2 0;
#X connect 19 0 6 0;
#X connect 20 0 17 0;
#X connect 21 0 20 0;
#X connect 21 1 25 0;
#X connect 22 0 24 0;
#X connect 23 0 4 0;
#X connect 25 0 20 1;
#X connect 26 0 21 0;
#X connect 27 0 8 0;
#X connect 28 0 14 0;
#X restore 824 355 pd rnd_freq;
#X obj 885 454 bng 15 250 50 0 empty empty empty 17 7 0 10 -228856
-1 -1;
#X obj 902 454 tgl 15 0 empty empty empty 17 7 0 10 -191407 -1 -1 0
1;
#X obj 903 426 metro 300;
#X obj 270 249 *~;
#X obj 271 314 +~;
#X obj 309 378 cos~;
#X obj 268 437 *~;
#X obj 286 284 samphold~;
#X obj 309 336 -~ 0.5;
#X obj 309 357 *~ 0.5;
#X obj 393 221 +~ 0.5;
#X obj 393 243 wrap~;
#X obj 361 270 *~;
#X obj 360 322 +~;
#X obj 375 295 samphold~;
#X obj 397 382 cos~;
#X obj 397 340 -~ 0.5;
#X obj 397 361 *~ 0.5;
#X obj 361 441 *~;
#X obj 268 406 tabread4~ chR;
#X obj 360 407 tabread4~ chR;
#X obj 264 483 *~ 0.5;
#X obj 110 574 * -1;
#X obj 111 551 - 1;
#X floatatom 110 602 5 0 0 0 - - -, f 5;
#X msg 758 372 0;
#X obj 111 529 / 127;
#X floatatom 149 603 5 0 0 0 - - -, f 5;
#X obj 129 639 *~ 0;
#X obj 3 402 tabread4~ chR;
#X obj -82 402 tabread4~ chR;
#X obj 91 639 *~ 0;
#X obj 251 576 * -1;
#X obj 252 553 - 1;
#X floatatom 251 604 5 0 0 0 - - -, f 5;
#X obj 251 533 / 127;
#X floatatom 290 605 5 0 0 0 - - -, f 5;
#X obj 270 641 *~ 0;
#X obj 232 641 *~ 0;
#X connect 0 0 1 0;
#X connect 1 0 2 0;
#X connect 1 0 5 1;
#X connect 2 0 3 0;
#X connect 3 0 4 0;
#X connect 4 0 5 0;
#X connect 5 0 16 0;
#X connect 5 0 25 0;
#X connect 5 0 59 0;
#X connect 5 0 82 0;
#X connect 5 0 81 0;
#X connect 6 0 0 0;
#X connect 7 0 8 0;
#X connect 7 0 16 1;
#X connect 7 0 17 0;
#X connect 7 0 19 0;
#X connect 7 0 55 0;
#X connect 7 0 59 1;
#X connect 7 0 62 0;
#X connect 7 0 60 0;
#X connect 8 0 13 0;
#X connect 9 0 8 1;
#X connect 9 0 21 1;
#X connect 9 0 55 1;
#X connect 9 0 64 1;
#X connect 11 0 7 0;
#X connect 12 0 15 0;
#X connect 13 0 12 0;
#X connect 14 0 15 1;
#X connect 15 0 30 0;
#X connect 16 0 13 1;
#X connect 17 0 18 0;
#X connect 18 0 14 0;
#X connect 19 0 20 0;
#X connect 20 0 21 0;
#X connect 20 0 25 1;
#X connect 20 0 27 0;
#X connect 21 0 24 0;
#X connect 23 0 29 0;
#X connect 24 0 23 0;
#X connect 25 0 24 1;
#X connect 26 0 29 1;
#X connect 27 0 28 0;
#X connect 28 0 26 0;
#X connect 29 0 30 0;
#X connect 30 0 80 0;
#X connect 31 0 78 0;
#X connect 31 0 87 0;
#X connect 32 0 33 0;
#X connect 32 0 34 0;
#X connect 33 0 9 0;
#X connect 33 0 36 0;
#X connect 34 0 11 0;
#X connect 34 0 38 0;
#X connect 35 0 77 0;
#X connect 36 0 9 0;
#X connect 38 0 11 0;
#X connect 42 0 6 0;
#X connect 45 0 46 0;
#X connect 45 0 48 0;
#X connect 46 0 0 0;
#X connect 47 0 45 0;
#X connect 48 0 49 0;
#X connect 51 0 38 0;
#X connect 52 0 51 0;
#X connect 53 0 54 0;
#X connect 54 0 52 0;
#X connect 55 0 56 0;
#X connect 56 0 71 0;
#X connect 57 0 58 1;
#X connect 58 0 73 0;
#X connect 59 0 56 1;
#X connect 60 0 61 0;
#X connect 61 0 57 0;
#X connect 62 0 63 0;
#X connect 63 0 64 0;
#X connect 63 0 66 1;
#X connect 63 0 68 0;
#X connect 64 0 65 0;
#X connect 65 0 72 0;
#X connect 66 0 65 1;
#X connect 67 0 70 1;
#X connect 68 0 69 0;
#X connect 69 0 67 0;
#X connect 70 0 73 0;
#X connect 71 0 58 0;
#X connect 72 0 70 0;
#X connect 73 0 89 0;
#X connect 74 0 76 0;
#X connect 75 0 74 0;
#X connect 76 0 83 1;
#X connect 77 0 31 0;
#X connect 78 0 75 0;
#X connect 78 0 79 0;
#X connect 79 0 80 1;
#X connect 80 0 40 0;
#X connect 81 0 90 0;
#X connect 82 0 83 0;
#X connect 83 0 40 0;
#X connect 84 0 86 0;
#X connect 85 0 84 0;
#X connect 86 0 90 1;
#X connect 87 0 85 0;
#X connect 87 0 88 0;
#X connect 88 0 89 1;
#X connect 89 0 41 0;
#X connect 90 0 41 0;
#X coords 0 -1 1 1 120 65 2 800 450;
