#N canvas 262 23 1438 850 10;
#X obj 368 -112 granular;
#X obj 128 693 output~;
#X obj 126 151 my_del;
#X obj 127 546 my_mixer;
#X obj 194 546 my_mixer;
#X obj 172 546 my_mixer;
#X obj 150 546 my_mixer;
#X obj 239 546 my_mixer;
#X obj 217 546 my_mixer;
#X obj 127 -35 my_cheby;
#X obj 284 546 my_mixer;
#X obj 262 546 my_mixer;
#X obj 126 337 envelope_this;
#X text 356 550 Add freq shifter after step seq so that for each step
the sound is transposed by tot semitones? (third \, fifth \, ninth
interval etc..);
#X connect 0 0 9 0;
#X connect 0 1 9 1;
#X connect 2 0 12 0;
#X connect 2 1 12 1;
#X connect 3 0 1 0;
#X connect 4 0 1 1;
#X connect 5 0 1 0;
#X connect 6 0 1 1;
#X connect 7 0 1 1;
#X connect 8 0 1 0;
#X connect 9 0 2 0;
#X connect 9 1 2 1;
#X connect 10 0 1 1;
#X connect 11 0 1 0;
#X connect 12 0 3 0;
#X connect 12 1 6 0;
