#N canvas 218 23 1115 745 10;
#X obj 399 50 granular;
#X obj 282 702 output~;
#X obj 399 311 my_del;
#X obj 276 540 my_mixer;
#X obj 343 540 my_mixer;
#X obj 321 540 my_mixer;
#X obj 299 540 my_mixer;
#X obj 388 540 my_mixer;
#X obj 366 540 my_mixer;
#X obj 399 124 my_cheby;
#X obj 433 540 my_mixer;
#X obj 411 540 my_mixer;
#X obj 797 127 my_16_step_seq;
#X connect 0 0 9 0;
#X connect 0 1 9 1;
#X connect 2 0 11 0;
#X connect 2 1 10 0;
#X connect 3 0 1 0;
#X connect 4 0 1 1;
#X connect 5 0 1 0;
#X connect 6 0 1 1;
#X connect 7 0 1 1;
#X connect 8 0 1 0;
#X connect 9 0 2 0;
#X connect 9 1 2 1;
#X connect 10 0 1 1;
#X connect 11 0 1 0;
