#N canvas 400 23 589 644 10;
#X obj 38 70 metro 500;
#X floatatom 353 102 8 0 5000 0 - - -, f 8;
#X obj 38 48 tgl 15 0 empty empty empty 17 7 0 10 -262144 -1 -1 1 1
;
#X obj 38 102 f;
#X obj 65 102 + 1;
#X obj 38 143 % 16;
#X obj 45 289 spigot 0;
#X obj 353 135 tgl 15 0 empty empty empty 17 7 0 10 -228856 -258113
-1 1 1;
#X obj 45 314 bng 15 250 50 0 empty empty empty 17 7 0 10 -228856 -1
-1;
#X obj 370 135 tgl 15 0 empty empty empty 17 7 0 10 -228856 -258113
-1 0 1;
#X obj 101 315 bng 15 250 50 0 empty empty empty 17 7 0 10 -228856
-1 -1;
#X obj 387 135 tgl 15 0 empty empty empty 17 7 0 10 -228856 -258113
-1 1 1;
#X obj 157 315 bng 15 250 50 0 empty empty empty 17 7 0 10 -228856
-1 -1;
#X obj 404 135 tgl 15 0 empty empty empty 17 7 0 10 -228856 -258113
-1 0 1;
#X obj 213 315 bng 15 250 50 0 empty empty empty 17 7 0 10 -228856
-1 -1;
#X obj 421 135 tgl 15 0 empty empty empty 17 7 0 10 -228856 -258113
-1 1 1;
#X obj 269 315 bng 15 250 50 0 empty empty empty 17 7 0 10 -228856
-1 -1;
#X obj 438 135 tgl 15 0 empty empty empty 17 7 0 10 -228856 -258113
-1 0 1;
#X obj 324 315 bng 15 250 50 0 empty empty empty 17 7 0 10 -228856
-1 -1;
#X obj 455 135 tgl 15 0 empty empty empty 17 7 0 10 -228856 -258113
-1 1 1;
#X obj 379 315 bng 15 250 50 0 empty empty empty 17 7 0 10 -228856
-1 -1;
#X obj 472 135 tgl 15 0 empty empty empty 17 7 0 10 -228856 -258113
-1 1 1;
#X obj 433 315 bng 15 250 50 0 empty empty empty 17 7 0 10 -228856
-1 -1;
#X obj 353 169 tgl 15 0 empty empty empty 17 7 0 10 -228856 -258113
-1 1 1;
#X obj 81 392 bng 15 250 50 0 empty empty empty 17 7 0 10 -228856 -1
-1;
#X obj 370 169 tgl 15 0 empty empty empty 17 7 0 10 -228856 -258113
-1 0 1;
#X obj 137 393 bng 15 250 50 0 empty empty empty 17 7 0 10 -228856
-1 -1;
#X obj 387 169 tgl 15 0 empty empty empty 17 7 0 10 -228856 -258113
-1 1 1;
#X obj 193 393 bng 15 250 50 0 empty empty empty 17 7 0 10 -228856
-1 -1;
#X obj 404 169 tgl 15 0 empty empty empty 17 7 0 10 -228856 -258113
-1 0 1;
#X obj 249 393 bng 15 250 50 0 empty empty empty 17 7 0 10 -228856
-1 -1;
#X obj 421 169 tgl 15 0 empty empty empty 17 7 0 10 -228856 -258113
-1 1 1;
#X obj 305 393 bng 15 250 50 0 empty empty empty 17 7 0 10 -228856
-1 -1;
#X obj 438 169 tgl 15 0 empty empty empty 17 7 0 10 -228856 -258113
-1 0 1;
#X obj 360 393 bng 15 250 50 0 empty empty empty 17 7 0 10 -228856
-1 -1;
#X obj 455 169 tgl 15 0 empty empty empty 17 7 0 10 -228856 -258113
-1 1 1;
#X obj 415 393 bng 15 250 50 0 empty empty empty 17 7 0 10 -228856
-1 -1;
#X obj 472 169 tgl 15 0 empty empty empty 17 7 0 10 -228856 -258113
-1 1 1;
#X obj 469 393 bng 15 250 50 0 empty empty empty 17 7 0 10 -228856
-1 -1;
#X obj 101 290 spigot 0;
#X obj 157 290 spigot 0;
#X obj 213 290 spigot 0;
#X obj 269 290 spigot 0;
#X obj 324 290 spigot 0;
#X obj 379 290 spigot 0;
#X obj 433 290 spigot 0;
#X obj 81 367 spigot 0;
#X obj 137 368 spigot 0;
#X obj 193 368 spigot 0;
#X obj 249 368 spigot 0;
#X obj 305 368 spigot 0;
#X obj 360 368 spigot 0;
#X obj 415 368 spigot 0;
#X obj 469 368 spigot 0;
#X obj 38 173 route 0 1 2 3 4 5 6 7 8 9 10 11 12 13 14 15;
#X obj 353 118 bng 15 250 50 0 empty empty empty 17 7 0 10 -228856
-1 -1;
#X obj 370 118 bng 15 250 50 0 empty empty empty 17 7 0 10 -228856
-1 -1;
#X obj 387 118 bng 15 250 50 0 empty empty empty 17 7 0 10 -228856
-1 -1;
#X obj 404 118 bng 15 250 50 0 empty empty empty 17 7 0 10 -228856
-1 -1;
#X obj 421 118 bng 15 250 50 0 empty empty empty 17 7 0 10 -228856
-1 -1;
#X obj 438 118 bng 15 250 50 0 empty empty empty 17 7 0 10 -228856
-1 -1;
#X obj 455 118 bng 15 250 50 0 empty empty empty 17 7 0 10 -228856
-1 -1;
#X obj 472 118 bng 15 250 50 0 empty empty empty 17 7 0 10 -228856
-1 -1;
#X obj 353 152 bng 15 250 50 0 empty empty empty 17 7 0 10 -228856
-1 -1;
#X obj 370 152 bng 15 250 50 0 empty empty empty 17 7 0 10 -228856
-1 -1;
#X obj 387 152 bng 15 250 50 0 empty empty empty 17 7 0 10 -228856
-1 -1;
#X obj 404 152 bng 15 250 50 0 empty empty empty 17 7 0 10 -228856
-1 -1;
#X obj 421 152 bng 15 250 50 0 empty empty empty 17 7 0 10 -228856
-1 -1;
#X obj 438 152 bng 15 250 50 0 empty empty empty 17 7 0 10 -228856
-1 -1;
#X obj 455 152 bng 15 250 50 0 empty empty empty 17 7 0 10 -228856
-1 -1;
#X obj 472 152 bng 15 250 50 0 empty empty empty 17 7 0 10 -228856
-1 -1;
#X obj 39 4 loadbang;
#X msg 39 26 1;
#X obj 43 481 outlet;
#X obj 53 491 outlet;
#X obj 63 501 outlet;
#X obj 73 511 outlet;
#X obj 83 521 outlet;
#X obj 93 531 outlet;
#X obj 103 541 outlet;
#X obj 113 551 outlet;
#X obj 123 561 outlet;
#X obj 133 571 outlet;
#X obj 143 581 outlet;
#X obj 153 591 outlet;
#X obj 163 601 outlet;
#X obj 173 611 outlet;
#X obj 183 621 outlet;
#X obj 193 631 outlet;
#X text 404 102 step [ms];
#X msg 103 29 500;
#X obj 319 631 outlet;
#X connect 0 0 3 0;
#X connect 0 0 91 0;
#X connect 1 0 0 1;
#X connect 2 0 0 0;
#X connect 3 0 4 0;
#X connect 3 0 5 0;
#X connect 4 0 3 1;
#X connect 5 0 54 0;
#X connect 6 0 8 0;
#X connect 7 0 6 1;
#X connect 8 0 73 0;
#X connect 9 0 39 1;
#X connect 10 0 74 0;
#X connect 11 0 40 1;
#X connect 12 0 75 0;
#X connect 13 0 41 1;
#X connect 14 0 76 0;
#X connect 15 0 42 1;
#X connect 16 0 77 0;
#X connect 17 0 43 1;
#X connect 18 0 78 0;
#X connect 19 0 44 1;
#X connect 20 0 79 0;
#X connect 21 0 45 1;
#X connect 22 0 80 0;
#X connect 23 0 46 1;
#X connect 24 0 81 0;
#X connect 25 0 47 1;
#X connect 26 0 82 0;
#X connect 27 0 48 1;
#X connect 28 0 83 0;
#X connect 29 0 49 1;
#X connect 30 0 84 0;
#X connect 31 0 50 1;
#X connect 32 0 85 0;
#X connect 33 0 51 1;
#X connect 34 0 86 0;
#X connect 35 0 52 1;
#X connect 36 0 87 0;
#X connect 37 0 53 1;
#X connect 38 0 88 0;
#X connect 39 0 10 0;
#X connect 40 0 12 0;
#X connect 41 0 14 0;
#X connect 42 0 16 0;
#X connect 43 0 18 0;
#X connect 44 0 20 0;
#X connect 45 0 22 0;
#X connect 46 0 24 0;
#X connect 47 0 26 0;
#X connect 48 0 28 0;
#X connect 49 0 30 0;
#X connect 50 0 32 0;
#X connect 51 0 34 0;
#X connect 52 0 36 0;
#X connect 53 0 38 0;
#X connect 54 0 55 0;
#X connect 54 1 56 0;
#X connect 54 2 57 0;
#X connect 54 3 58 0;
#X connect 54 4 59 0;
#X connect 54 5 60 0;
#X connect 54 6 61 0;
#X connect 54 7 62 0;
#X connect 54 8 63 0;
#X connect 54 9 64 0;
#X connect 54 10 65 0;
#X connect 54 11 66 0;
#X connect 54 12 67 0;
#X connect 54 13 68 0;
#X connect 54 14 69 0;
#X connect 54 15 70 0;
#X connect 55 0 6 0;
#X connect 56 0 39 0;
#X connect 57 0 40 0;
#X connect 58 0 41 0;
#X connect 59 0 42 0;
#X connect 60 0 43 0;
#X connect 61 0 44 0;
#X connect 62 0 45 0;
#X connect 63 0 46 0;
#X connect 64 0 47 0;
#X connect 65 0 48 0;
#X connect 66 0 49 0;
#X connect 67 0 50 0;
#X connect 68 0 51 0;
#X connect 69 0 52 0;
#X connect 70 0 53 0;
#X connect 71 0 72 0;
#X connect 71 0 90 0;
#X connect 72 0 2 0;
#X connect 90 0 1 0;
#X coords 0 -1 1 1 141 88 2 350 100;
