#N canvas 110 212 882 560 10;
#X obj 404 55 my_16_step_seq;
#N canvas 0 22 450 300 envi 0;
#X obj 193 218 *~;
#X obj 207 193 adsr 1 10 10 65 10;
#X obj 239 139 del 100;
#X obj 205 97 t b b;
#X msg 207 139 1;
#X msg 238 161 0;
#X floatatom 278 117 5 0 0 0 - - -, f 5;
#X obj 278 93 r dur;
#X obj 194 254 outlet~;
#X obj 102 31 inlet~;
#X obj 204 43 inlet;
#X connect 0 0 8 0;
#X connect 1 0 0 1;
#X connect 2 0 5 0;
#X connect 3 0 4 0;
#X connect 3 1 2 0;
#X connect 4 0 1 0;
#X connect 5 0 1 0;
#X connect 6 0 2 1;
#X connect 7 0 6 0;
#X connect 9 0 0 0;
#X connect 10 0 3 0;
#X restore 287 165 pd envi;
#X obj 117 74 loadbang;
#X msg 117 102 200;
#N canvas 0 22 450 300 envi 0;
#X obj 193 218 *~;
#X obj 207 193 adsr 1 10 10 65 10;
#X obj 239 139 del 100;
#X obj 205 97 t b b;
#X msg 207 139 1;
#X msg 238 161 0;
#X floatatom 278 117 5 0 0 0 - - -, f 5;
#X obj 278 93 r dur;
#X obj 194 254 outlet~;
#X obj 102 31 inlet~;
#X obj 204 43 inlet;
#X connect 0 0 8 0;
#X connect 1 0 0 1;
#X connect 2 0 5 0;
#X connect 3 0 4 0;
#X connect 3 1 2 0;
#X connect 4 0 1 0;
#X connect 5 0 1 0;
#X connect 6 0 2 1;
#X connect 7 0 6 0;
#X connect 9 0 0 0;
#X connect 10 0 3 0;
#X restore 297 175 pd envi;
#N canvas 0 22 450 300 envi 0;
#X obj 193 218 *~;
#X obj 207 193 adsr 1 10 10 65 10;
#X obj 239 139 del 100;
#X obj 205 97 t b b;
#X msg 207 139 1;
#X msg 238 161 0;
#X floatatom 278 117 5 0 0 0 - - -, f 5;
#X obj 278 93 r dur;
#X obj 194 254 outlet~;
#X obj 102 31 inlet~;
#X obj 204 43 inlet;
#X connect 0 0 8 0;
#X connect 1 0 0 1;
#X connect 2 0 5 0;
#X connect 3 0 4 0;
#X connect 3 1 2 0;
#X connect 4 0 1 0;
#X connect 5 0 1 0;
#X connect 6 0 2 1;
#X connect 7 0 6 0;
#X connect 9 0 0 0;
#X connect 10 0 3 0;
#X restore 312 185 pd envi;
#N canvas 0 22 450 300 envi 0;
#X obj 193 218 *~;
#X obj 207 193 adsr 1 10 10 65 10;
#X obj 239 139 del 100;
#X obj 205 97 t b b;
#X msg 207 139 1;
#X msg 238 161 0;
#X floatatom 278 117 5 0 0 0 - - -, f 5;
#X obj 278 93 r dur;
#X obj 194 254 outlet~;
#X obj 102 31 inlet~;
#X obj 204 43 inlet;
#X connect 0 0 8 0;
#X connect 1 0 0 1;
#X connect 2 0 5 0;
#X connect 3 0 4 0;
#X connect 3 1 2 0;
#X connect 4 0 1 0;
#X connect 5 0 1 0;
#X connect 6 0 2 1;
#X connect 7 0 6 0;
#X connect 9 0 0 0;
#X connect 10 0 3 0;
#X restore 322 195 pd envi;
#N canvas 0 22 450 300 envi 0;
#X obj 193 218 *~;
#X obj 207 193 adsr 1 10 10 65 10;
#X obj 239 139 del 100;
#X obj 205 97 t b b;
#X msg 207 139 1;
#X msg 238 161 0;
#X floatatom 278 117 5 0 0 0 - - -, f 5;
#X obj 278 93 r dur;
#X obj 194 254 outlet~;
#X obj 102 31 inlet~;
#X obj 204 43 inlet;
#X connect 0 0 8 0;
#X connect 1 0 0 1;
#X connect 2 0 5 0;
#X connect 3 0 4 0;
#X connect 3 1 2 0;
#X connect 4 0 1 0;
#X connect 5 0 1 0;
#X connect 6 0 2 1;
#X connect 7 0 6 0;
#X connect 9 0 0 0;
#X connect 10 0 3 0;
#X restore 332 205 pd envi;
#N canvas 0 22 450 300 envi 0;
#X obj 193 218 *~;
#X obj 207 193 adsr 1 10 10 65 10;
#X obj 239 139 del 100;
#X obj 205 97 t b b;
#X msg 207 139 1;
#X msg 238 161 0;
#X floatatom 278 117 5 0 0 0 - - -, f 5;
#X obj 278 93 r dur;
#X obj 194 254 outlet~;
#X obj 102 31 inlet~;
#X obj 204 43 inlet;
#X connect 0 0 8 0;
#X connect 1 0 0 1;
#X connect 2 0 5 0;
#X connect 3 0 4 0;
#X connect 3 1 2 0;
#X connect 4 0 1 0;
#X connect 5 0 1 0;
#X connect 6 0 2 1;
#X connect 7 0 6 0;
#X connect 9 0 0 0;
#X connect 10 0 3 0;
#X restore 342 215 pd envi;
#N canvas 0 22 450 300 envi 0;
#X obj 193 218 *~;
#X obj 207 193 adsr 1 10 10 65 10;
#X obj 239 139 del 100;
#X obj 205 97 t b b;
#X msg 207 139 1;
#X msg 238 161 0;
#X floatatom 278 117 5 0 0 0 - - -, f 5;
#X obj 278 93 r dur;
#X obj 194 254 outlet~;
#X obj 102 31 inlet~;
#X obj 204 43 inlet;
#X connect 0 0 8 0;
#X connect 1 0 0 1;
#X connect 2 0 5 0;
#X connect 3 0 4 0;
#X connect 3 1 2 0;
#X connect 4 0 1 0;
#X connect 5 0 1 0;
#X connect 6 0 2 1;
#X connect 7 0 6 0;
#X connect 9 0 0 0;
#X connect 10 0 3 0;
#X restore 352 225 pd envi;
#N canvas 0 22 450 300 envi 0;
#X obj 193 218 *~;
#X obj 207 193 adsr 1 10 10 65 10;
#X obj 239 139 del 100;
#X obj 205 97 t b b;
#X msg 207 139 1;
#X msg 238 161 0;
#X floatatom 278 117 5 0 0 0 - - -, f 5;
#X obj 278 93 r dur;
#X obj 194 254 outlet~;
#X obj 102 31 inlet~;
#X obj 204 43 inlet;
#X connect 0 0 8 0;
#X connect 1 0 0 1;
#X connect 2 0 5 0;
#X connect 3 0 4 0;
#X connect 3 1 2 0;
#X connect 4 0 1 0;
#X connect 5 0 1 0;
#X connect 6 0 2 1;
#X connect 7 0 6 0;
#X connect 9 0 0 0;
#X connect 10 0 3 0;
#X restore 362 235 pd envi;
#N canvas 0 22 450 300 envi 0;
#X obj 193 218 *~;
#X obj 207 193 adsr 1 10 10 65 10;
#X obj 239 139 del 100;
#X obj 205 97 t b b;
#X msg 207 139 1;
#X msg 238 161 0;
#X floatatom 278 117 5 0 0 0 - - -, f 5;
#X obj 278 93 r dur;
#X obj 194 254 outlet~;
#X obj 102 31 inlet~;
#X obj 204 43 inlet;
#X connect 0 0 8 0;
#X connect 1 0 0 1;
#X connect 2 0 5 0;
#X connect 3 0 4 0;
#X connect 3 1 2 0;
#X connect 4 0 1 0;
#X connect 5 0 1 0;
#X connect 6 0 2 1;
#X connect 7 0 6 0;
#X connect 9 0 0 0;
#X connect 10 0 3 0;
#X restore 372 245 pd envi;
#N canvas 0 22 450 300 envi 0;
#X obj 193 218 *~;
#X obj 207 193 adsr 1 10 10 65 10;
#X obj 239 139 del 100;
#X obj 205 97 t b b;
#X msg 207 139 1;
#X msg 238 161 0;
#X floatatom 278 117 5 0 0 0 - - -, f 5;
#X obj 278 93 r dur;
#X obj 194 254 outlet~;
#X obj 102 31 inlet~;
#X obj 204 43 inlet;
#X connect 0 0 8 0;
#X connect 1 0 0 1;
#X connect 2 0 5 0;
#X connect 3 0 4 0;
#X connect 3 1 2 0;
#X connect 4 0 1 0;
#X connect 5 0 1 0;
#X connect 6 0 2 1;
#X connect 7 0 6 0;
#X connect 9 0 0 0;
#X connect 10 0 3 0;
#X restore 382 255 pd envi;
#N canvas 0 22 450 300 envi 0;
#X obj 193 218 *~;
#X obj 207 193 adsr 1 10 10 65 10;
#X obj 239 139 del 100;
#X obj 205 97 t b b;
#X msg 207 139 1;
#X msg 238 161 0;
#X floatatom 278 117 5 0 0 0 - - -, f 5;
#X obj 278 93 r dur;
#X obj 194 254 outlet~;
#X obj 102 31 inlet~;
#X obj 204 43 inlet;
#X connect 0 0 8 0;
#X connect 1 0 0 1;
#X connect 2 0 5 0;
#X connect 3 0 4 0;
#X connect 3 1 2 0;
#X connect 4 0 1 0;
#X connect 5 0 1 0;
#X connect 6 0 2 1;
#X connect 7 0 6 0;
#X connect 9 0 0 0;
#X connect 10 0 3 0;
#X restore 392 265 pd envi;
#N canvas 0 22 450 300 envi 0;
#X obj 193 218 *~;
#X obj 207 193 adsr 1 10 10 65 10;
#X obj 239 139 del 100;
#X obj 205 97 t b b;
#X msg 207 139 1;
#X msg 238 161 0;
#X floatatom 278 117 5 0 0 0 - - -, f 5;
#X obj 278 93 r dur;
#X obj 194 254 outlet~;
#X obj 102 31 inlet~;
#X obj 204 43 inlet;
#X connect 0 0 8 0;
#X connect 1 0 0 1;
#X connect 2 0 5 0;
#X connect 3 0 4 0;
#X connect 3 1 2 0;
#X connect 4 0 1 0;
#X connect 5 0 1 0;
#X connect 6 0 2 1;
#X connect 7 0 6 0;
#X connect 9 0 0 0;
#X connect 10 0 3 0;
#X restore 402 275 pd envi;
#N canvas 0 22 450 300 envi 0;
#X obj 193 218 *~;
#X obj 207 193 adsr 1 10 10 65 10;
#X obj 239 139 del 100;
#X obj 205 97 t b b;
#X msg 207 139 1;
#X msg 238 161 0;
#X floatatom 278 117 5 0 0 0 - - -, f 5;
#X obj 278 93 r dur;
#X obj 194 254 outlet~;
#X obj 102 31 inlet~;
#X obj 204 43 inlet;
#X connect 0 0 8 0;
#X connect 1 0 0 1;
#X connect 2 0 5 0;
#X connect 3 0 4 0;
#X connect 3 1 2 0;
#X connect 4 0 1 0;
#X connect 5 0 1 0;
#X connect 6 0 2 1;
#X connect 7 0 6 0;
#X connect 9 0 0 0;
#X connect 10 0 3 0;
#X restore 412 285 pd envi;
#N canvas 0 22 450 300 envi 0;
#X obj 193 218 *~;
#X obj 207 193 adsr 1 10 10 65 10;
#X obj 239 139 del 100;
#X obj 205 97 t b b;
#X msg 207 139 1;
#X msg 238 161 0;
#X floatatom 278 117 5 0 0 0 - - -, f 5;
#X obj 278 93 r dur;
#X obj 194 254 outlet~;
#X obj 102 31 inlet~;
#X obj 204 43 inlet;
#X connect 0 0 8 0;
#X connect 1 0 0 1;
#X connect 2 0 5 0;
#X connect 3 0 4 0;
#X connect 3 1 2 0;
#X connect 4 0 1 0;
#X connect 5 0 1 0;
#X connect 6 0 2 1;
#X connect 7 0 6 0;
#X connect 9 0 0 0;
#X connect 10 0 3 0;
#X restore 422 295 pd envi;
#N canvas 0 22 450 300 envi 0;
#X obj 193 218 *~;
#X obj 207 193 adsr 1 10 10 65 10;
#X obj 239 139 del 100;
#X obj 205 97 t b b;
#X msg 207 139 1;
#X msg 238 161 0;
#X floatatom 278 117 5 0 0 0 - - -, f 5;
#X obj 278 93 r dur;
#X obj 194 254 outlet~;
#X obj 102 31 inlet~;
#X obj 204 43 inlet;
#X connect 0 0 8 0;
#X connect 1 0 0 1;
#X connect 2 0 5 0;
#X connect 3 0 4 0;
#X connect 3 1 2 0;
#X connect 4 0 1 0;
#X connect 5 0 1 0;
#X connect 6 0 2 1;
#X connect 7 0 6 0;
#X connect 9 0 0 0;
#X connect 10 0 3 0;
#X restore 432 305 pd envi;
#N canvas 0 22 450 300 envi 0;
#X obj 193 218 *~;
#X obj 207 193 adsr 1 10 10 65 10;
#X obj 239 139 del 100;
#X obj 205 97 t b b;
#X msg 207 139 1;
#X msg 238 161 0;
#X floatatom 278 117 5 0 0 0 - - -, f 5;
#X obj 278 93 r dur;
#X obj 194 254 outlet~;
#X obj 102 31 inlet~;
#X obj 204 43 inlet;
#X connect 0 0 8 0;
#X connect 1 0 0 1;
#X connect 2 0 5 0;
#X connect 3 0 4 0;
#X connect 3 1 2 0;
#X connect 4 0 1 0;
#X connect 5 0 1 0;
#X connect 6 0 2 1;
#X connect 7 0 6 0;
#X connect 9 0 0 0;
#X connect 10 0 3 0;
#X restore 442 315 pd envi;
#X obj 289 529 outlet~;
#X obj 340 530 outlet~;
#X obj 519 338 / 127;
#X obj 288 502 *~;
#X floatatom 519 361 5 0 0 0 - - -, f 5;
#X obj 558 361 - 1;
#X obj 556 383 * -1;
#X floatatom 557 406 5 0 0 0 - - -, f 5;
#X obj 340 503 *~;
#X obj 557 450 line~;
#X msg 557 426 \$1 2;
#X obj 520 404 line~;
#X msg 520 380 \$1 2;
#X obj 409 166 hsl 95 15 0 127 0 0 empty empty empty -2 -8 0 10 -228856
-1 -1 4663 1;
#X obj 515 216 random 127;
#X obj 518 284 spigot 0;
#X obj 526 166 tgl 15 0 empty empty empty 17 7 0 10 -228856 -1 -1 0
1;
#X obj 509 166 bng 15 250 50 0 empty empty empty 17 7 0 10 -228856
-1 -1;
#X msg 642 270 63;
#X text 512 165 r;
#X obj 116 153 s dur;
#X floatatom 407 148 8 5 15000 0 - - -, f 8;
#X text 459 147 gate dur;
#X obj 317 90 inlet~;
#X text 407 164 pan;
#X obj 559 54 loadbang;
#X obj 404 30 bng 15 250 50 0 empty empty empty 17 7 0 10 -262144 -1
-1;
#X obj 404 4 inlet;
#X connect 0 0 1 1;
#X connect 0 1 4 1;
#X connect 0 2 5 1;
#X connect 0 3 6 1;
#X connect 0 4 7 1;
#X connect 0 5 8 1;
#X connect 0 6 9 1;
#X connect 0 7 10 1;
#X connect 0 8 11 1;
#X connect 0 9 12 1;
#X connect 0 10 13 1;
#X connect 0 11 14 1;
#X connect 0 12 15 1;
#X connect 0 13 16 1;
#X connect 0 14 17 1;
#X connect 0 15 18 1;
#X connect 0 16 33 0;
#X connect 1 0 22 0;
#X connect 1 0 27 0;
#X connect 2 0 3 0;
#X connect 3 0 40 0;
#X connect 4 0 22 0;
#X connect 4 0 27 0;
#X connect 5 0 22 0;
#X connect 5 0 27 0;
#X connect 6 0 22 0;
#X connect 6 0 27 0;
#X connect 7 0 22 0;
#X connect 7 0 27 0;
#X connect 8 0 22 0;
#X connect 8 0 27 0;
#X connect 9 0 22 0;
#X connect 9 0 27 0;
#X connect 10 0 22 0;
#X connect 10 0 27 0;
#X connect 11 0 22 0;
#X connect 11 0 27 0;
#X connect 12 0 22 0;
#X connect 12 0 27 0;
#X connect 13 0 22 0;
#X connect 13 0 27 0;
#X connect 14 0 22 0;
#X connect 14 0 27 0;
#X connect 15 0 22 0;
#X connect 15 0 27 0;
#X connect 16 0 22 0;
#X connect 16 0 27 0;
#X connect 17 0 22 0;
#X connect 17 0 27 0;
#X connect 18 0 22 0;
#X connect 18 0 27 0;
#X connect 21 0 23 0;
#X connect 21 0 24 0;
#X connect 22 0 19 0;
#X connect 23 0 31 0;
#X connect 24 0 25 0;
#X connect 25 0 26 0;
#X connect 26 0 29 0;
#X connect 27 0 20 0;
#X connect 28 0 22 1;
#X connect 29 0 28 0;
#X connect 30 0 27 1;
#X connect 31 0 30 0;
#X connect 32 0 21 0;
#X connect 33 0 34 0;
#X connect 34 0 32 0;
#X connect 35 0 34 1;
#X connect 36 0 37 0;
#X connect 37 0 32 0;
#X connect 40 0 39 0;
#X connect 42 0 1 0;
#X connect 42 0 4 0;
#X connect 42 0 5 0;
#X connect 42 0 6 0;
#X connect 42 0 7 0;
#X connect 42 0 8 0;
#X connect 42 0 9 0;
#X connect 42 0 10 0;
#X connect 42 0 11 0;
#X connect 42 0 12 0;
#X connect 42 0 13 0;
#X connect 42 0 14 0;
#X connect 42 0 15 0;
#X connect 42 0 16 0;
#X connect 42 0 17 0;
#X connect 42 0 18 0;
#X connect 44 0 36 0;
#X connect 45 0 0 0;
#X connect 46 0 45 0;
#X coords 0 -1 1 1 150 135 2 400 50;
