#N canvas 37 279 446 405 10;
#X obj 42 46 inlet~;
#X obj 102 105 vsl 15 120 0 127 0 0 empty empty empty 0 -9 0 10 -261682
-1 -1 0 1;
#X obj 79 336 *~;
#X obj 95 311 line~;
#X msg 95 289 \$1 50;
#X obj 79 357 outlet~;
#X obj 96 267 / 127;
#X connect 0 0 2 0;
#X connect 1 0 6 0;
#X connect 2 0 5 0;
#X connect 3 0 2 1;
#X connect 4 0 3 0;
#X connect 6 0 4 0;
#X coords 0 -1 1 1 20 130 2 100 100;
